<svg xmlns="http://www.w3.org/2000/svg" viewBox="0 0 200 80" fill="none">
  <defs>
    <linearGradient id="wmbg" x1="0" y1="0" x2="200" y2="80" gradientUnits="userSpaceOnUse">
      <stop offset="0%" stop-color="#064e3b" stop-opacity="0.85"/>
      <stop offset="100%" stop-color="#065f46" stop-opacity="0.85"/>
    </linearGradient>
    <linearGradient id="iconbg" x1="0" y1="0" x2="46" y2="46" gradientUnits="userSpaceOnUse">
      <stop offset="0%" stop-color="#10b981"/>
      <stop offset="100%" stop-color="#34d399"/>
    </linearGradient>
  </defs>

  <!-- Background pill -->
  <rect width="200" height="80" rx="16" fill="url(#wmbg)"/>

  <!-- Icon -->
  <g transform="translate(12, 16)">
    <rect width="46" height="46" rx="10" fill="url(#iconbg)"/>
    <path d="M7 11 C7 9.5 8.5 8 10 8 L36 8 C37.5 8 39 9.5 39 11 L39 28 C39 29.5 37.5 31 36 31 L26 31 L22 37 L22 31 L10 31 C8.5 31 7 29.5 7 28 Z" fill="white" fill-opacity="0.95"/>
    <path d="M23 13 L25 19 L31 19 L26.5 22.5 L28.5 28.5 L23 25 L17.5 28.5 L19.5 22.5 L15 19 L21 19 Z" fill="url(#iconbg)"/>
  </g>

  <!-- Wordmark -->
  <text x="68" y="46" font-family="Inter, -apple-system, BlinkMacSystemFont, 'Segoe UI', sans-serif" font-size="26" font-weight="700" fill="#ffffff" letter-spacing="-0.5">Typani</text>
  <text x="68" y="63" font-family="Inter, -apple-system, BlinkMacSystemFont, 'Segoe UI', sans-serif" font-size="13" font-weight="400" fill="#6ee7b7" letter-spacing="0.3">typani.com</text>
</svg>
