<svg xmlns="http://www.w3.org/2000/svg" viewBox="0 0 80 80" fill="none">
  <defs>
    <linearGradient id="bg" x1="0" y1="0" x2="80" y2="80" gradientUnits="userSpaceOnUse">
      <stop offset="0%" stop-color="#10b981"/>
      <stop offset="100%" stop-color="#059669"/>
    </linearGradient>
    <linearGradient id="shine" x1="0" y1="0" x2="0" y2="1">
      <stop offset="0%" stop-color="#ffffff" stop-opacity="0.15"/>
      <stop offset="100%" stop-color="#ffffff" stop-opacity="0"/>
    </linearGradient>
  </defs>

  <!-- Rounded square background -->
  <rect width="80" height="80" rx="20" fill="url(#bg)"/>
  <rect width="80" height="80" rx="20" fill="url(#shine)"/>

  <!-- Main speech bubble -->
  <path d="M14 18 C14 15.8 15.8 14 18 14 L62 14 C64.2 14 66 15.8 66 18 L66 48 C66 50.2 64.2 52 62 52 L44 52 L36 64 L36 52 L18 52 C15.8 52 14 50.2 14 48 Z" fill="white" fill-opacity="0.95"/>

  <!-- Star shape inside bubble — centered, clean 5-point star -->
  <path d="M40 22 L42.4 29.4 L50.2 29.4 L44 33.8 L46.4 41.2 L40 36.8 L33.6 41.2 L36 33.8 L29.8 29.4 L37.6 29.4 Z" fill="url(#bg)"/>
</svg>
